<svg width="53" height="12" viewBox="0 0 53 12" fill="none" xmlns="http://www.w3.org/2000/svg">
<circle cx="51.5" cy="4.5" r="1.5" fill="#BC3E35"/>
<path d="M1.74 4.904C1.74 5.216 1.816 5.488 1.968 5.72C2.12 5.952 2.304 6.148 2.52 6.308C2.736 6.46 3.04 6.656 3.432 6.896C3.848 7.144 4.172 7.352 4.404 7.52C4.636 7.688 4.832 7.904 4.992 8.168C5.16 8.424 5.244 8.732 5.244 9.092C5.244 9.476 5.148 9.824 4.956 10.136C4.764 10.448 4.48 10.696 4.104 10.88C3.736 11.056 3.292 11.144 2.772 11.144C2.156 11.144 1.592 11.004 1.08 10.724C1.04 10.7 1.012 10.672 0.996 10.64C0.988 10.608 0.98 10.56 0.972 10.496L0.816 8.864C0.808 8.832 0.824 8.812 0.864 8.804C0.912 8.796 0.94 8.808 0.948 8.84C1.068 9.408 1.304 9.904 1.656 10.328C2.008 10.744 2.472 10.952 3.048 10.952C3.448 10.952 3.784 10.844 4.056 10.628C4.336 10.404 4.476 10.052 4.476 9.572C4.476 9.212 4.396 8.9 4.236 8.636C4.076 8.372 3.88 8.156 3.648 7.988C3.424 7.812 3.116 7.608 2.724 7.376C2.34 7.144 2.036 6.944 1.812 6.776C1.596 6.608 1.412 6.396 1.26 6.14C1.108 5.884 1.032 5.584 1.032 5.24C1.032 4.84 1.136 4.5 1.344 4.22C1.56 3.932 1.836 3.72 2.172 3.584C2.516 3.44 2.88 3.368 3.264 3.368C3.736 3.368 4.204 3.464 4.668 3.656C4.788 3.696 4.848 3.764 4.848 3.86L4.932 5.228C4.932 5.268 4.908 5.288 4.86 5.288C4.82 5.288 4.796 5.272 4.788 5.24C4.732 4.824 4.564 4.44 4.284 4.088C4.004 3.728 3.6 3.548 3.072 3.548C2.624 3.548 2.288 3.68 2.064 3.944C1.848 4.2 1.74 4.52 1.74 4.904ZM12.7465 4.496C12.7465 4.256 12.7185 4.08 12.6625 3.968C12.6145 3.848 12.5185 3.764 12.3745 3.716C12.2305 3.668 12.0025 3.644 11.6905 3.644C11.6665 3.644 11.6545 3.62 11.6545 3.572C11.6545 3.524 11.6665 3.5 11.6905 3.5L12.2665 3.512C12.6185 3.528 12.9105 3.536 13.1425 3.536C13.3585 3.536 13.6345 3.528 13.9705 3.512L14.5585 3.5C14.5825 3.5 14.5945 3.524 14.5945 3.572C14.5945 3.62 14.5825 3.644 14.5585 3.644C14.2545 3.644 14.0305 3.668 13.8865 3.716C13.7425 3.756 13.6425 3.832 13.5865 3.944C13.5385 4.056 13.5145 4.232 13.5145 4.472V10.028C13.5145 10.268 13.5385 10.448 13.5865 10.568C13.6425 10.68 13.7425 10.756 13.8865 10.796C14.0305 10.836 14.2545 10.856 14.5585 10.856C14.5825 10.856 14.5945 10.88 14.5945 10.928C14.5945 10.976 14.5825 11 14.5585 11C14.3105 11 14.1145 10.996 13.9705 10.988L13.1425 10.976L12.2665 10.988C12.1225 10.996 11.9305 11 11.6905 11C11.6665 11 11.6545 10.976 11.6545 10.928C11.6545 10.88 11.6665 10.856 11.6905 10.856C12.0025 10.856 12.2305 10.836 12.3745 10.796C12.5185 10.756 12.6145 10.68 12.6625 10.568C12.7185 10.448 12.7465 10.268 12.7465 10.028V4.496ZM7.71853 6.968H13.0825V7.22H7.71853V6.968ZM7.37053 4.472C7.37053 4.232 7.34253 4.056 7.28653 3.944C7.23853 3.832 7.14253 3.756 6.99853 3.716C6.85453 3.668 6.63053 3.644 6.32653 3.644C6.31053 3.644 6.30253 3.62 6.30253 3.572C6.30253 3.524 6.31053 3.5 6.32653 3.5L6.93853 3.512C7.27453 3.528 7.54253 3.536 7.74253 3.536C7.97453 3.536 8.26653 3.528 8.61853 3.512L9.19453 3.5C9.21053 3.5 9.21853 3.524 9.21853 3.572C9.21853 3.62 9.21053 3.644 9.19453 3.644C8.89053 3.644 8.66253 3.668 8.51053 3.716C8.36653 3.764 8.26653 3.848 8.21053 3.968C8.16253 4.08 8.13853 4.256 8.13853 4.496V10.028C8.13853 10.268 8.16253 10.448 8.21053 10.568C8.26653 10.68 8.36653 10.756 8.51053 10.796C8.65453 10.836 8.88253 10.856 9.19453 10.856C9.21053 10.856 9.21853 10.88 9.21853 10.928C9.21853 10.976 9.21053 11 9.19453 11C8.94653 11 8.75053 10.996 8.60653 10.988L7.74253 10.976L6.91453 10.988C6.77053 10.996 6.57053 11 6.31453 11C6.29853 11 6.29053 10.976 6.29053 10.928C6.29053 10.88 6.29853 10.856 6.31453 10.856C6.61853 10.856 6.84253 10.836 6.98653 10.796C7.13853 10.756 7.23853 10.68 7.28653 10.568C7.34253 10.448 7.37053 10.268 7.37053 10.028V4.472ZM17.388 10.028C17.388 10.276 17.412 10.456 17.46 10.568C17.508 10.68 17.6 10.756 17.736 10.796C17.88 10.836 18.104 10.856 18.408 10.856C18.432 10.856 18.444 10.88 18.444 10.928C18.444 10.976 18.432 11 18.408 11C18.168 11 17.976 10.996 17.832 10.988L16.98 10.976L16.152 10.988C16.008 10.996 15.812 11 15.564 11C15.54 11 15.528 10.976 15.528 10.928C15.528 10.88 15.54 10.856 15.564 10.856C15.868 10.856 16.088 10.836 16.224 10.796C16.368 10.756 16.464 10.68 16.512 10.568C16.568 10.448 16.596 10.268 16.596 10.028V4.472C16.596 4.232 16.568 4.056 16.512 3.944C16.464 3.832 16.368 3.756 16.224 3.716C16.088 3.668 15.868 3.644 15.564 3.644C15.54 3.644 15.528 3.62 15.528 3.572C15.528 3.524 15.54 3.5 15.564 3.5L16.152 3.512C16.488 3.528 16.764 3.536 16.98 3.536C17.22 3.536 17.508 3.528 17.844 3.512L18.408 3.5C18.432 3.5 18.444 3.524 18.444 3.572C18.444 3.62 18.432 3.644 18.408 3.644C18.112 3.644 17.892 3.668 17.748 3.716C17.604 3.764 17.508 3.848 17.46 3.968C17.412 4.08 17.388 4.256 17.388 4.496V10.028ZM20.4244 3.776L20.7004 3.8V9.692C20.7004 10.108 20.7724 10.408 20.9164 10.592C21.0684 10.768 21.3084 10.856 21.6364 10.856C21.6604 10.856 21.6724 10.88 21.6724 10.928C21.6724 10.976 21.6604 11 21.6364 11C21.4364 11 21.2844 10.996 21.1804 10.988L20.5804 10.976L19.9684 10.988C19.8564 10.996 19.6924 11 19.4764 11C19.4604 11 19.4524 10.976 19.4524 10.928C19.4524 10.88 19.4604 10.856 19.4764 10.856C19.8204 10.856 20.0644 10.768 20.2084 10.592C20.3524 10.408 20.4244 10.108 20.4244 9.692V3.776ZM26.4724 11.144C26.4724 11.16 26.4524 11.172 26.4124 11.18C26.3724 11.188 26.3444 11.184 26.3284 11.168L20.8084 4.484C20.5524 4.172 20.3164 3.956 20.1004 3.836C19.8924 3.708 19.6844 3.644 19.4764 3.644C19.4524 3.644 19.4404 3.62 19.4404 3.572C19.4404 3.524 19.4524 3.5 19.4764 3.5L19.9204 3.512C20.0164 3.52 20.1484 3.524 20.3164 3.524C20.4924 3.524 20.6364 3.52 20.7484 3.512C20.8604 3.504 20.9484 3.5 21.0124 3.5C21.0684 3.5 21.1124 3.516 21.1444 3.548C21.1844 3.572 21.2284 3.628 21.2764 3.716C21.3724 3.86 21.4724 3.996 21.5764 4.124L26.3764 10.016L26.4724 11.144ZM26.4724 11.144L26.1964 10.772V4.82C26.1964 4.404 26.1244 4.104 25.9804 3.92C25.8444 3.736 25.6124 3.644 25.2844 3.644C25.2684 3.644 25.2604 3.62 25.2604 3.572C25.2604 3.524 25.2684 3.5 25.2844 3.5L25.7524 3.512C25.9924 3.528 26.1884 3.536 26.3404 3.536C26.4844 3.536 26.6844 3.528 26.9404 3.512L27.4324 3.5C27.4564 3.5 27.4684 3.524 27.4684 3.572C27.4684 3.62 27.4564 3.644 27.4324 3.644C27.0964 3.644 26.8524 3.736 26.7004 3.92C26.5484 4.104 26.4724 4.404 26.4724 4.82V11.144ZM28.2191 11C28.2031 11 28.1951 10.976 28.1951 10.928C28.1951 10.88 28.2031 10.856 28.2191 10.856C28.5231 10.856 28.7431 10.836 28.8791 10.796C29.0231 10.756 29.1191 10.68 29.1671 10.568C29.2231 10.448 29.2511 10.268 29.2511 10.028V4.472C29.2511 4.232 29.2231 4.056 29.1671 3.944C29.1191 3.832 29.0231 3.756 28.8791 3.716C28.7431 3.668 28.5231 3.644 28.2191 3.644C28.2031 3.644 28.1951 3.62 28.1951 3.572C28.1951 3.524 28.2031 3.5 28.2191 3.5H33.0431C33.1151 3.5 33.1511 3.536 33.1511 3.608L33.1751 5.084C33.1751 5.108 33.1511 5.124 33.1031 5.132C33.0631 5.132 33.0431 5.12 33.0431 5.096C33.0191 4.672 32.8911 4.344 32.6591 4.112C32.4271 3.872 32.1191 3.752 31.7351 3.752H31.0031C30.7231 3.752 30.5151 3.776 30.3791 3.824C30.2431 3.864 30.1471 3.936 30.0911 4.04C30.0431 4.144 30.0191 4.308 30.0191 4.532V9.98C30.0191 10.196 30.0431 10.36 30.0911 10.472C30.1471 10.576 30.2391 10.648 30.3671 10.688C30.4951 10.728 30.6951 10.748 30.9671 10.748H31.9271C32.3111 10.748 32.6311 10.612 32.8871 10.34C33.1431 10.068 33.3151 9.692 33.4031 9.212C33.4031 9.196 33.4191 9.188 33.4511 9.188C33.4751 9.188 33.4951 9.196 33.5111 9.212C33.5351 9.22 33.5471 9.228 33.5471 9.236C33.4751 9.74 33.4391 10.268 33.4391 10.82C33.4391 10.884 33.4231 10.932 33.3911 10.964C33.3671 10.988 33.3191 11 33.2471 11H28.2191ZM32.5751 8.204C32.5751 7.852 32.4871 7.6 32.3111 7.448C32.1431 7.296 31.8591 7.22 31.4591 7.22H29.6591V6.968H31.4951C31.8791 6.968 32.1511 6.904 32.3111 6.776C32.4791 6.648 32.5631 6.432 32.5631 6.128C32.5631 6.112 32.5871 6.104 32.6351 6.104C32.6831 6.104 32.7071 6.112 32.7071 6.128L32.6951 7.1C32.6951 7.332 32.6991 7.508 32.7071 7.628L32.7191 8.204C32.7191 8.22 32.6951 8.228 32.6471 8.228C32.5991 8.228 32.5751 8.22 32.5751 8.204ZM35.6964 3.776L35.9844 3.8L35.8644 9.692C35.8564 10.116 35.9284 10.416 36.0804 10.592C36.2324 10.768 36.5004 10.856 36.8844 10.856C36.9004 10.856 36.9084 10.88 36.9084 10.928C36.9084 10.976 36.9004 11 36.8844 11C36.6604 11 36.4884 10.996 36.3684 10.988L35.7204 10.976L35.0964 10.988C34.9844 10.996 34.8244 11 34.6164 11C34.6004 11 34.5924 10.976 34.5924 10.928C34.5924 10.88 34.6004 10.856 34.6164 10.856C34.9524 10.856 35.1924 10.768 35.3364 10.592C35.4884 10.408 35.5684 10.108 35.5764 9.692L35.6964 3.776ZM43.8924 10.856C43.9164 10.856 43.9284 10.88 43.9284 10.928C43.9284 10.976 43.9164 11 43.8924 11C43.6444 11 43.4484 10.996 43.3044 10.988L42.4764 10.976L41.7084 10.988C41.5804 10.996 41.4004 11 41.1684 11C41.1524 11 41.1444 10.976 41.1444 10.928C41.1444 10.88 41.1524 10.856 41.1684 10.856C41.4404 10.856 41.6404 10.836 41.7684 10.796C41.9044 10.748 41.9924 10.668 42.0324 10.556C42.0804 10.444 42.0964 10.268 42.0804 10.028L41.8524 4.232L42.2484 3.68L39.1284 10.916C39.1124 10.948 39.0804 10.964 39.0324 10.964C38.9924 10.964 38.9564 10.948 38.9244 10.916L35.9124 4.496C35.7764 4.2 35.6084 3.984 35.4084 3.848C35.2164 3.712 34.9804 3.644 34.7004 3.644C34.6844 3.644 34.6764 3.62 34.6764 3.572C34.6764 3.524 34.6844 3.5 34.7004 3.5L35.1444 3.512C35.2244 3.52 35.3364 3.524 35.4804 3.524C35.6244 3.524 35.7444 3.52 35.8404 3.512C35.9444 3.504 36.0244 3.5 36.0804 3.5C36.1844 3.5 36.2684 3.54 36.3324 3.62C36.4044 3.692 36.5044 3.86 36.6324 4.124L39.3684 9.884L38.9964 10.508L41.9244 3.8C42.0124 3.6 42.1324 3.5 42.2844 3.5C42.3244 3.5 42.3804 3.504 42.4524 3.512C42.5324 3.52 42.6364 3.524 42.7644 3.524L43.3284 3.512C43.4164 3.504 43.5484 3.5 43.7244 3.5C43.7404 3.5 43.7484 3.524 43.7484 3.572C43.7484 3.62 43.7404 3.644 43.7244 3.644C43.3164 3.644 43.0244 3.704 42.8484 3.824C42.6804 3.936 42.6044 4.152 42.6204 4.472L42.8604 10.028C42.8684 10.276 42.8964 10.456 42.9444 10.568C43.0004 10.68 43.0964 10.756 43.2324 10.796C43.3684 10.836 43.5884 10.856 43.8924 10.856ZM46.904 6.776H49.376L49.46 7.028H46.724L46.904 6.776ZM52.556 10.856C52.588 10.856 52.604 10.88 52.604 10.928C52.604 10.976 52.588 11 52.556 11C52.404 11 52.168 10.992 51.848 10.976C51.528 10.96 51.296 10.952 51.152 10.952C50.976 10.952 50.752 10.96 50.48 10.976C50.224 10.992 50.028 11 49.892 11C49.86 11 49.844 10.976 49.844 10.928C49.844 10.88 49.86 10.856 49.892 10.856C50.196 10.856 50.412 10.828 50.54 10.772C50.676 10.716 50.744 10.616 50.744 10.472C50.744 10.352 50.696 10.184 50.6 9.968L47.936 4.34L48.236 3.968L45.908 9.476C45.796 9.748 45.74 9.972 45.74 10.148C45.74 10.62 46.132 10.856 46.916 10.856C46.956 10.856 46.976 10.88 46.976 10.928C46.976 10.976 46.956 11 46.916 11C46.772 11 46.564 10.992 46.292 10.976C45.988 10.96 45.724 10.952 45.5 10.952C45.292 10.952 45.052 10.96 44.78 10.976C44.54 10.992 44.34 11 44.18 11C44.14 11 44.12 10.976 44.12 10.928C44.12 10.88 44.14 10.856 44.18 10.856C44.404 10.856 44.592 10.816 44.744 10.736C44.904 10.648 45.052 10.5 45.188 10.292C45.332 10.076 45.488 9.768 45.656 9.368L48.188 3.392C48.204 3.368 48.232 3.356 48.272 3.356C48.312 3.356 48.336 3.368 48.344 3.392L51.176 9.356C51.448 9.948 51.68 10.348 51.872 10.556C52.064 10.756 52.292 10.856 52.556 10.856Z" fill="#E3E3DA"/>
</svg>
