<svg xmlns="http://www.w3.org/2000/svg" width="631" height="150" viewBox="0 0 631.466 150">
  <title>SHINEMA</title>
  <g aria-label="SHINEMA">
    <path d="M66.049,12.480 C66.049,0.191 57.349,-6.896 40.184,-8.744 C27.896,-10.031 21.751,-15.124 21.624,-23.951 C21.516,-33.811 26.971,-38.904 38.209,-39.140 C49.700,-39.249 55.391,-34.609 56.424,-23.009 L59.904,-23.009 L59.904,-43.780 L56.660,-43.780 C56.316,-42.620 55.500,-42.040 54.340,-42.040 C51.911,-42.040 46.800,-44.016 40.891,-44.016 C33.224,-44.016 26.736,-42.149 21.389,-38.451 C15.136,-34.156 12.000,-27.776 12.000,-19.764 C12.000,-7.929 20.229,-1.096 36.704,0.880 C42.740,1.569 47.489,3.200 50.969,6.100 C54.684,9.344 56.551,13.404 56.551,18.516 C56.424,23.264 54.449,27.089 50.389,29.989 C46.456,32.671 41.689,34.176 36.360,34.284 C31.720,34.411 25.104,32.436 22.096,29.989 C18.960,27.324 17.111,23.029 16.640,16.776 L13.160,16.776 L13.051,35.209 C20.120,37.891 26.500,39.160 31.956,39.160 C41.344,39.160 49.120,37.076 55.264,33.016 C62.460,28.249 66.049,21.416 66.049,12.480 Z" fill="#F2EFE8"/><path d="M162.222,34.411 L151.438,34.411 L151.438,-38.324 L162.222,-38.324 L162.222,-41.931 L129.977,-41.931 L129.977,-38.324 L140.889,-38.324 L140.889,-6.080 L105.273,-6.080 L105.273,-38.324 L116.058,-38.324 L116.058,-41.931 L84.049,-41.931 L84.049,-38.324 L94.942,-38.324 L94.942,34.411 L84.049,34.411 L84.049,38.000 L116.058,38.000 L116.058,34.411 L105.273,34.411 L105.273,-2.020 L140.889,-2.020 L140.889,34.411 L129.977,34.411 L129.977,38.000 L162.222,38.000 L162.222,34.411 Z" fill="#F2EFE8"/><path d="M213.391,34.411 L202.606,34.411 L202.606,-38.324 L213.391,-38.324 L213.391,-41.931 L180.222,-41.931 L180.222,-38.324 L191.115,-38.324 L191.115,34.411 L180.222,34.411 L180.222,38.000 L213.391,38.000 L213.391,34.411 Z" fill="#F2EFE8"/><path d="M308.639,-41.931 L283.011,-41.931 L283.011,-38.324 C287.306,-38.324 289.844,-37.980 290.659,-37.291 C292.871,-35.189 293.904,-32.180 293.904,-28.229 L293.904,17.809 L255.515,-41.931 L232.315,-41.931 L232.315,-38.324 L238.804,-38.324 C240.906,-38.324 242.066,-37.400 242.284,-35.660 L242.284,24.424 C242.284,28.484 241.251,31.511 239.039,33.360 C238.224,34.049 235.686,34.411 231.391,34.411 L231.391,38.000 L257.019,38.000 L257.019,34.411 C252.506,34.411 249.951,34.049 249.135,33.251 C247.159,31.384 246.235,28.484 246.235,24.424 L246.235,-35.660 L295.299,39.976 L297.964,39.976 L297.746,-28.229 C297.746,-32.180 298.779,-35.189 300.755,-37.164 C301.571,-37.980 304.126,-38.324 308.639,-38.324 L308.639,-41.931 Z" fill="#F2EFE8"/><path d="M391.599,10.269 C391.255,18.044 388.699,24.080 384.186,28.376 C382.682,29.880 380.471,31.149 377.335,32.309 C374.326,33.469 371.771,34.049 369.559,34.049 L347.882,34.411 L347.882,-0.751 L362.019,-0.751 C367.711,-0.751 372.115,4.360 372.115,13.749 L375.722,13.749 L375.722,-18.369 L372.115,-18.369 C372.115,-13.620 371.191,-10.031 369.451,-7.584 C367.819,-5.609 365.391,-4.684 362.019,-4.684 L347.882,-4.684 L347.882,-38.324 L367.711,-38.089 C382.446,-37.744 387.775,-31.491 388.826,-18.369 L392.415,-18.369 L392.179,-41.931 L326.639,-41.931 L326.639,-38.324 L337.551,-38.324 L337.551,34.411 L326.639,34.411 L326.639,38.000 L394.046,38.000 L395.315,10.269 L391.599,10.269 Z" fill="#F2EFE8"/><path d="M504.955,34.411 L494.171,34.411 L494.171,-38.324 L504.955,-38.324 L504.955,-41.931 L482.806,-41.931 L458.446,18.389 L437.095,-41.931 L414.239,-41.931 L414.239,-38.324 L420.746,-38.324 C422.831,-38.324 423.991,-37.400 424.226,-35.660 L424.226,24.424 C424.226,28.484 423.175,31.511 420.982,33.360 C420.166,34.049 417.611,34.411 413.315,34.411 L413.315,38.000 L438.835,38.000 L438.835,34.411 C434.322,34.411 431.766,34.049 430.951,33.251 C428.975,31.276 428.051,28.376 428.051,24.424 L428.051,-33.576 L453.679,36.840 L455.419,36.731 L483.495,-33.920 L483.495,34.411 L472.711,34.411 L472.711,38.000 L504.955,38.000 L504.955,34.411 Z" fill="#F2EFE8"/><path d="M603.466,34.411 L594.875,34.411 L567.506,-44.124 L562.866,-44.124 L537.691,21.996 C535.497,28.140 533.286,31.856 531.311,33.124 C529.806,34.049 527.015,34.520 522.955,34.411 L522.955,38.000 L548.257,38.000 L548.257,34.411 C543.835,34.411 541.406,34.049 540.935,33.360 C540.482,32.671 540.246,31.729 540.246,30.696 C540.246,28.484 540.935,25.584 542.331,21.996 L546.735,11.556 L574.702,11.556 L582.586,34.411 L573.306,34.411 L573.306,38.000 L603.466,38.000 L603.466,34.411 Z M548.366,7.151 L561.597,-26.851 L573.071,7.151 L548.366,7.151 Z" fill="#F2EFE8"/>
    <circle cx="608.466" cy="38.000" r="7" fill="#E5332A"/>
  </g>
</svg>
